<?xml version="1.0" encoding="UTF-8"?>
<svg xmlns="http://www.w3.org/2000/svg" version="1.1" viewBox="0 0 32 32">
  <defs>
    <style>
      .cls-1 {
        fill: #fff;
      }
    </style>
  </defs>
  <!-- Generator: Adobe Illustrator 28.7.1, SVG Export Plug-In . SVG Version: 1.2.0 Build 142)  -->
  <g>
    <g id="Layer_1">
      <g id="Cart">
        <path class="cls-1" d="M28,8.2l-2,12c0,.5-.5.8-1,.8h-13.7s0,0,0,0c0,0-.2,0-.3,0h0c-.1,0-.2,0-.3,0,0,0,0,0-.1,0,0,0-.1,0-.2,0,0,0,0,0-.1-.1,0,0,0,0-.1-.1,0,0,0,0,0-.1,0,0,0,0,0-.2l-3.8-14.3h-2.2c-.6,0-1-.4-1-1s.4-1,1-1h3c.5,0,.8.3,1,.7l.6,2.3h18.4c.3,0,.6.1.8.4.2.2.3.5.2.8ZM13,22c-1.1,0-2,.9-2,2s.9,2,2,2,2-.9,2-2-.9-2-2-2ZM23,22c-1.1,0-2,.9-2,2s.9,2,2,2,2-.9,2-2-.9-2-2-2Z"/>
      </g>
    </g>
  </g>
</svg>